{"title":"Nirvana - Nevermind (Blu-ray Pure Audio Disk) [24-96] [FLAC]","uid":9635454,"size":1158399171,"categoryP":"audio","categoryS":"flac","magnet":"?xt=urn:btih:c224939e40cf2cf8fc86add475fe002f41ceb2a1&amp;dn=Nirvana+-+Nevermind+%28Blu-ray+Pure+Audio+Disk%29+%5B24-96%5D+%5BFLAC%5D&amp;tr=udp%3A%2F%2Ftracker.openbittorrent.com%3A80&amp;tr=udp%3A%2F%2Fopen.demonii.com%3A1337&amp;tr=udp%3A%2F%2Ftracker.coppersurfer.tk%3A6969&amp;tr=udp%3A%2F%2Fexodus.desync.com%3A6969","seeders":1,"leechers":0,"uploader":"s0bersky","files":-1,"time":1392842909,"description":"Nirvana - Nevermind (Blu-ray Pure Audio Disk) [24bit/96kHz] [FLAC]\n\nGenre     : Rock\nStyle     : Grunge, Alternative Rock\nYear      : 1991 \n\nTracklist :\n\n01.  Smells Like Teen Spirit\n02.  In Bloom\n03.  Come As You Are\n04.  Breed\n05.  Lithium\n06.  Polly\n07.  Territorial Pissings\n08.  Drain You\n09.  Lounge Act\n10. Stay Away\n11. On A Plain\n12. Something In The Way \n\n\nAudio files has been extracted using AVS Audio Conventer 7.2 - it is original LPCM 2.0 stream (24bit/96kHz) converted into WAV format and compressed using lossless FLAC encoder ver. 1.3.0\n\nCUE sheet has been made manually.\n\n================================================================================\nTechnical info:\n--------------------------------------------------------------------------------\nGeneral\nComplete name                            : C:LosslessNirvana - Nevermind (Blu-ray Pure Audio Disk) [24-96] [FLAC]Nirvana - Nevermind.flac\nFormat                                   : FLAC\nFormat/Info                              : Free Lossless Audio Codec\nFile size                                : 1.08 GiB\nDuration                                 : 59mn 27s\nOverall bit rate mode                    : Variable\nOverall bit rate                         : 2 595 Kbps\n\nAudio\nFormat                                   : FLAC\nFormat/Info                              : Free Lossless Audio Codec\nDuration                                 : 59mn 27s\nBit rate mode                            : Variable\nBit rate                                 : 2 595 Kbps\nChannel(s)                               : 2 channels\nSampling rate                            : 96.0 KHz\nBit depth                                : 24 bits\nStream size                              : 1.08 GiB (100%)\nWriting library                          : libFLAC 1.3.0 (UTC 2013-05-26)\n\nfoobar2000 1.3.1 / Dynamic Range Meter 1.1.1\nlog date: 2014-02-19 16:27:51\n\n--------------------------------------------------------------------------------\nAnalyzed: Nirvana / Nevermind\n--------------------------------------------------------------------------------\n\nDR         Peak         RMS     Duration Track\n--------------------------------------------------------------------------------\nDR6       -0.08 dB    -7.82 dB      5:01 01-Smells Like Teen Spirit\nDR7       -0.08 dB    -7.77 dB      4:15 02-In Bloom\nDR7       -0.09 dB    -8.37 dB      3:39 03-Come As You Are\nDR7       -0.08 dB    -7.72 dB      3:04 04-Breed\nDR7       -0.09 dB    -8.98 dB      4:17 05-Lithium\nDR9       -0.10 dB   -10.68 dB      1:21 06-Polly\nDR7       -0.09 dB    -8.62 dB      3:59 07-23:13:26\nDR7       -0.09 dB    -7.73 dB      3:44 08-Drain You\nDR7       -0.09 dB    -7.79 dB      2:37 09-Lounge Act\nDR6       -0.09 dB    -7.64 dB      3:32 10-Stay Away\nDR6       -0.05 dB    -7.49 dB      3:17 11-On A Plain\nDR7       -0.07 dB   -11.94 dB     20:41 12-Something In The Way\n--------------------------------------------------------------------------------\n\nNumber of tracks:  12\nOfficial DR value: DR7\n\nSamplerate:        96000 Hz\nChannels:          2\nBits per sample:   24\nBitrate:           2595 kbps\nCodec:             FLAC\n--------------------------------------------------------------------------------\nSpectrogram: http://i.imgur.com/NKQsLQI.png\n================================================================================","torrent":{"xt":"urn:btih:c224939e40cf2cf8fc86add475fe002f41ceb2a1","amp;dn":"Nirvana+-+Nevermind+%28Blu-ray+Pure+Audio+Disk%29+%5B24-96%5D+%5BFLAC%5D","amp;tr":["udp%3A%2F%2Ftracker.openbittorrent.com%3A80","udp%3A%2F%2Fopen.demonii.com%3A1337","udp%3A%2F%2Ftracker.coppersurfer.tk%3A6969","udp%3A%2F%2Fexodus.desync.com%3A6969"],"infoHash":"c224939e40cf2cf8fc86add475fe002f41ceb2a1","infoHashBuffer":{"type":"Buffer","data":[194,36,147,158,64,207,44,248,252,134,173,212,117,254,0,47,65,206,178,161]},"announce":[],"urlList":[]}}